%TF.GenerationSoftware,KiCad,Pcbnew,9.0.7*%
%TF.CreationDate,2026-04-05T00:07:23+03:00*%
%TF.ProjectId,eda_monitor_v2_smart,6564615f-6d6f-46e6-9974-6f725f76325f,rev?*%
%TF.SameCoordinates,Original*%
%TF.FileFunction,Legend,Top*%
%TF.FilePolarity,Positive*%
%FSLAX46Y46*%
G04 Gerber Fmt 4.6, Leading zero omitted, Abs format (unit mm)*
G04 Created by KiCad (PCBNEW 9.0.7) date 2026-04-05 00:07:23*
%MOMM*%
%LPD*%
G01*
G04 APERTURE LIST*
%ADD10C,0.150000*%
%ADD11C,0.120000*%
G04 APERTURE END LIST*
D10*
X248156667Y-81167200D02*
X248299524Y-81214819D01*
X248299524Y-81214819D02*
X248537619Y-81214819D01*
X248537619Y-81214819D02*
X248632857Y-81167200D01*
X248632857Y-81167200D02*
X248680476Y-81119580D01*
X248680476Y-81119580D02*
X248728095Y-81024342D01*
X248728095Y-81024342D02*
X248728095Y-80929104D01*
X248728095Y-80929104D02*
X248680476Y-80833866D01*
X248680476Y-80833866D02*
X248632857Y-80786247D01*
X248632857Y-80786247D02*
X248537619Y-80738628D01*
X248537619Y-80738628D02*
X248347143Y-80691009D01*
X248347143Y-80691009D02*
X248251905Y-80643390D01*
X248251905Y-80643390D02*
X248204286Y-80595771D01*
X248204286Y-80595771D02*
X248156667Y-80500533D01*
X248156667Y-80500533D02*
X248156667Y-80405295D01*
X248156667Y-80405295D02*
X248204286Y-80310057D01*
X248204286Y-80310057D02*
X248251905Y-80262438D01*
X248251905Y-80262438D02*
X248347143Y-80214819D01*
X248347143Y-80214819D02*
X248585238Y-80214819D01*
X248585238Y-80214819D02*
X248728095Y-80262438D01*
X249061429Y-80214819D02*
X249299524Y-81214819D01*
X249299524Y-81214819D02*
X249490000Y-80500533D01*
X249490000Y-80500533D02*
X249680476Y-81214819D01*
X249680476Y-81214819D02*
X249918572Y-80214819D01*
X250823333Y-81214819D02*
X250251905Y-81214819D01*
X250537619Y-81214819D02*
X250537619Y-80214819D01*
X250537619Y-80214819D02*
X250442381Y-80357676D01*
X250442381Y-80357676D02*
X250347143Y-80452914D01*
X250347143Y-80452914D02*
X250251905Y-80500533D01*
X265028095Y-78854819D02*
X265028095Y-79664342D01*
X265028095Y-79664342D02*
X265075714Y-79759580D01*
X265075714Y-79759580D02*
X265123333Y-79807200D01*
X265123333Y-79807200D02*
X265218571Y-79854819D01*
X265218571Y-79854819D02*
X265409047Y-79854819D01*
X265409047Y-79854819D02*
X265504285Y-79807200D01*
X265504285Y-79807200D02*
X265551904Y-79759580D01*
X265551904Y-79759580D02*
X265599523Y-79664342D01*
X265599523Y-79664342D02*
X265599523Y-78854819D01*
X266028095Y-78950057D02*
X266075714Y-78902438D01*
X266075714Y-78902438D02*
X266170952Y-78854819D01*
X266170952Y-78854819D02*
X266409047Y-78854819D01*
X266409047Y-78854819D02*
X266504285Y-78902438D01*
X266504285Y-78902438D02*
X266551904Y-78950057D01*
X266551904Y-78950057D02*
X266599523Y-79045295D01*
X266599523Y-79045295D02*
X266599523Y-79140533D01*
X266599523Y-79140533D02*
X266551904Y-79283390D01*
X266551904Y-79283390D02*
X265980476Y-79854819D01*
X265980476Y-79854819D02*
X266599523Y-79854819D01*
X260665714Y-71819104D02*
X261141904Y-71819104D01*
X260570476Y-72104819D02*
X260903809Y-71104819D01*
X260903809Y-71104819D02*
X261237142Y-72104819D01*
X262094285Y-72104819D02*
X261522857Y-72104819D01*
X261808571Y-72104819D02*
X261808571Y-71104819D01*
X261808571Y-71104819D02*
X261713333Y-71247676D01*
X261713333Y-71247676D02*
X261618095Y-71342914D01*
X261618095Y-71342914D02*
X261522857Y-71390533D01*
X262641904Y-31555180D02*
X262641904Y-30745657D01*
X262641904Y-30745657D02*
X262594285Y-30650419D01*
X262594285Y-30650419D02*
X262546666Y-30602800D01*
X262546666Y-30602800D02*
X262451428Y-30555180D01*
X262451428Y-30555180D02*
X262260952Y-30555180D01*
X262260952Y-30555180D02*
X262165714Y-30602800D01*
X262165714Y-30602800D02*
X262118095Y-30650419D01*
X262118095Y-30650419D02*
X262070476Y-30745657D01*
X262070476Y-30745657D02*
X262070476Y-31555180D01*
X261641904Y-30602800D02*
X261499047Y-30555180D01*
X261499047Y-30555180D02*
X261260952Y-30555180D01*
X261260952Y-30555180D02*
X261165714Y-30602800D01*
X261165714Y-30602800D02*
X261118095Y-30650419D01*
X261118095Y-30650419D02*
X261070476Y-30745657D01*
X261070476Y-30745657D02*
X261070476Y-30840895D01*
X261070476Y-30840895D02*
X261118095Y-30936133D01*
X261118095Y-30936133D02*
X261165714Y-30983752D01*
X261165714Y-30983752D02*
X261260952Y-31031371D01*
X261260952Y-31031371D02*
X261451428Y-31078990D01*
X261451428Y-31078990D02*
X261546666Y-31126609D01*
X261546666Y-31126609D02*
X261594285Y-31174228D01*
X261594285Y-31174228D02*
X261641904Y-31269466D01*
X261641904Y-31269466D02*
X261641904Y-31364704D01*
X261641904Y-31364704D02*
X261594285Y-31459942D01*
X261594285Y-31459942D02*
X261546666Y-31507561D01*
X261546666Y-31507561D02*
X261451428Y-31555180D01*
X261451428Y-31555180D02*
X261213333Y-31555180D01*
X261213333Y-31555180D02*
X261070476Y-31507561D01*
X260308571Y-31078990D02*
X260165714Y-31031371D01*
X260165714Y-31031371D02*
X260118095Y-30983752D01*
X260118095Y-30983752D02*
X260070476Y-30888514D01*
X260070476Y-30888514D02*
X260070476Y-30745657D01*
X260070476Y-30745657D02*
X260118095Y-30650419D01*
X260118095Y-30650419D02*
X260165714Y-30602800D01*
X260165714Y-30602800D02*
X260260952Y-30555180D01*
X260260952Y-30555180D02*
X260641904Y-30555180D01*
X260641904Y-30555180D02*
X260641904Y-31555180D01*
X260641904Y-31555180D02*
X260308571Y-31555180D01*
X260308571Y-31555180D02*
X260213333Y-31507561D01*
X260213333Y-31507561D02*
X260165714Y-31459942D01*
X260165714Y-31459942D02*
X260118095Y-31364704D01*
X260118095Y-31364704D02*
X260118095Y-31269466D01*
X260118095Y-31269466D02*
X260165714Y-31174228D01*
X260165714Y-31174228D02*
X260213333Y-31126609D01*
X260213333Y-31126609D02*
X260308571Y-31078990D01*
X260308571Y-31078990D02*
X260641904Y-31078990D01*
X243452380Y-99204819D02*
X242880952Y-99204819D01*
X243166666Y-99204819D02*
X243166666Y-98204819D01*
X243166666Y-98204819D02*
X243071428Y-98347676D01*
X243071428Y-98347676D02*
X242976190Y-98442914D01*
X242976190Y-98442914D02*
X242880952Y-98490533D01*
X244071428Y-98204819D02*
X244166666Y-98204819D01*
X244166666Y-98204819D02*
X244261904Y-98252438D01*
X244261904Y-98252438D02*
X244309523Y-98300057D01*
X244309523Y-98300057D02*
X244357142Y-98395295D01*
X244357142Y-98395295D02*
X244404761Y-98585771D01*
X244404761Y-98585771D02*
X244404761Y-98823866D01*
X244404761Y-98823866D02*
X244357142Y-99014342D01*
X244357142Y-99014342D02*
X244309523Y-99109580D01*
X244309523Y-99109580D02*
X244261904Y-99157200D01*
X244261904Y-99157200D02*
X244166666Y-99204819D01*
X244166666Y-99204819D02*
X244071428Y-99204819D01*
X244071428Y-99204819D02*
X243976190Y-99157200D01*
X243976190Y-99157200D02*
X243928571Y-99109580D01*
X243928571Y-99109580D02*
X243880952Y-99014342D01*
X243880952Y-99014342D02*
X243833333Y-98823866D01*
X243833333Y-98823866D02*
X243833333Y-98585771D01*
X243833333Y-98585771D02*
X243880952Y-98395295D01*
X243880952Y-98395295D02*
X243928571Y-98300057D01*
X243928571Y-98300057D02*
X243976190Y-98252438D01*
X243976190Y-98252438D02*
X244071428Y-98204819D01*
X245261904Y-98538152D02*
X245261904Y-99204819D01*
X244833333Y-98538152D02*
X244833333Y-99061961D01*
X244833333Y-99061961D02*
X244880952Y-99157200D01*
X244880952Y-99157200D02*
X244976190Y-99204819D01*
X244976190Y-99204819D02*
X245119047Y-99204819D01*
X245119047Y-99204819D02*
X245214285Y-99157200D01*
X245214285Y-99157200D02*
X245261904Y-99109580D01*
X246071428Y-98681009D02*
X245738095Y-98681009D01*
X245738095Y-99204819D02*
X245738095Y-98204819D01*
X245738095Y-98204819D02*
X246214285Y-98204819D01*
X247119047Y-99204819D02*
X246547619Y-99204819D01*
X246833333Y-99204819D02*
X246833333Y-98204819D01*
X246833333Y-98204819D02*
X246738095Y-98347676D01*
X246738095Y-98347676D02*
X246642857Y-98442914D01*
X246642857Y-98442914D02*
X246547619Y-98490533D01*
X261276009Y-94785714D02*
X261323628Y-94642857D01*
X261323628Y-94642857D02*
X261371247Y-94595238D01*
X261371247Y-94595238D02*
X261466485Y-94547619D01*
X261466485Y-94547619D02*
X261609342Y-94547619D01*
X261609342Y-94547619D02*
X261704580Y-94595238D01*
X261704580Y-94595238D02*
X261752200Y-94642857D01*
X261752200Y-94642857D02*
X261799819Y-94738095D01*
X261799819Y-94738095D02*
X261799819Y-95119047D01*
X261799819Y-95119047D02*
X260799819Y-95119047D01*
X260799819Y-95119047D02*
X260799819Y-94785714D01*
X260799819Y-94785714D02*
X260847438Y-94690476D01*
X260847438Y-94690476D02*
X260895057Y-94642857D01*
X260895057Y-94642857D02*
X260990295Y-94595238D01*
X260990295Y-94595238D02*
X261085533Y-94595238D01*
X261085533Y-94595238D02*
X261180771Y-94642857D01*
X261180771Y-94642857D02*
X261228390Y-94690476D01*
X261228390Y-94690476D02*
X261276009Y-94785714D01*
X261276009Y-94785714D02*
X261276009Y-95119047D01*
X260799819Y-94261904D02*
X260799819Y-93690476D01*
X261799819Y-93976190D02*
X260799819Y-93976190D01*
X261799819Y-92833333D02*
X261799819Y-93404761D01*
X261799819Y-93119047D02*
X260799819Y-93119047D01*
X260799819Y-93119047D02*
X260942676Y-93214285D01*
X260942676Y-93214285D02*
X261037914Y-93309523D01*
X261037914Y-93309523D02*
X261085533Y-93404761D01*
X238844819Y-44766904D02*
X239654342Y-44766904D01*
X239654342Y-44766904D02*
X239749580Y-44719285D01*
X239749580Y-44719285D02*
X239797200Y-44671666D01*
X239797200Y-44671666D02*
X239844819Y-44576428D01*
X239844819Y-44576428D02*
X239844819Y-44385952D01*
X239844819Y-44385952D02*
X239797200Y-44290714D01*
X239797200Y-44290714D02*
X239749580Y-44243095D01*
X239749580Y-44243095D02*
X239654342Y-44195476D01*
X239654342Y-44195476D02*
X238844819Y-44195476D01*
X239844819Y-43195476D02*
X239844819Y-43766904D01*
X239844819Y-43481190D02*
X238844819Y-43481190D01*
X238844819Y-43481190D02*
X238987676Y-43576428D01*
X238987676Y-43576428D02*
X239082914Y-43671666D01*
X239082914Y-43671666D02*
X239130533Y-43766904D01*
X228416666Y-69034819D02*
X228416666Y-69749104D01*
X228416666Y-69749104D02*
X228369047Y-69891961D01*
X228369047Y-69891961D02*
X228273809Y-69987200D01*
X228273809Y-69987200D02*
X228130952Y-70034819D01*
X228130952Y-70034819D02*
X228035714Y-70034819D01*
X229416666Y-70034819D02*
X228845238Y-70034819D01*
X229130952Y-70034819D02*
X229130952Y-69034819D01*
X229130952Y-69034819D02*
X229035714Y-69177676D01*
X229035714Y-69177676D02*
X228940476Y-69272914D01*
X228940476Y-69272914D02*
X228845238Y-69320533D01*
X210204819Y-72797619D02*
X210204819Y-73369047D01*
X210204819Y-73083333D02*
X209204819Y-73083333D01*
X209204819Y-73083333D02*
X209347676Y-73178571D01*
X209347676Y-73178571D02*
X209442914Y-73273809D01*
X209442914Y-73273809D02*
X209490533Y-73369047D01*
X209204819Y-72178571D02*
X209204819Y-72083333D01*
X209204819Y-72083333D02*
X209252438Y-71988095D01*
X209252438Y-71988095D02*
X209300057Y-71940476D01*
X209300057Y-71940476D02*
X209395295Y-71892857D01*
X209395295Y-71892857D02*
X209585771Y-71845238D01*
X209585771Y-71845238D02*
X209823866Y-71845238D01*
X209823866Y-71845238D02*
X210014342Y-71892857D01*
X210014342Y-71892857D02*
X210109580Y-71940476D01*
X210109580Y-71940476D02*
X210157200Y-71988095D01*
X210157200Y-71988095D02*
X210204819Y-72083333D01*
X210204819Y-72083333D02*
X210204819Y-72178571D01*
X210204819Y-72178571D02*
X210157200Y-72273809D01*
X210157200Y-72273809D02*
X210109580Y-72321428D01*
X210109580Y-72321428D02*
X210014342Y-72369047D01*
X210014342Y-72369047D02*
X209823866Y-72416666D01*
X209823866Y-72416666D02*
X209585771Y-72416666D01*
X209585771Y-72416666D02*
X209395295Y-72369047D01*
X209395295Y-72369047D02*
X209300057Y-72321428D01*
X209300057Y-72321428D02*
X209252438Y-72273809D01*
X209252438Y-72273809D02*
X209204819Y-72178571D01*
X209538152Y-70988095D02*
X210204819Y-70988095D01*
X209538152Y-71416666D02*
X210061961Y-71416666D01*
X210061961Y-71416666D02*
X210157200Y-71369047D01*
X210157200Y-71369047D02*
X210204819Y-71273809D01*
X210204819Y-71273809D02*
X210204819Y-71130952D01*
X210204819Y-71130952D02*
X210157200Y-71035714D01*
X210157200Y-71035714D02*
X210109580Y-70988095D01*
X209681009Y-70178571D02*
X209681009Y-70511904D01*
X210204819Y-70511904D02*
X209204819Y-70511904D01*
X209204819Y-70511904D02*
X209204819Y-70035714D01*
X209300057Y-69702380D02*
X209252438Y-69654761D01*
X209252438Y-69654761D02*
X209204819Y-69559523D01*
X209204819Y-69559523D02*
X209204819Y-69321428D01*
X209204819Y-69321428D02*
X209252438Y-69226190D01*
X209252438Y-69226190D02*
X209300057Y-69178571D01*
X209300057Y-69178571D02*
X209395295Y-69130952D01*
X209395295Y-69130952D02*
X209490533Y-69130952D01*
X209490533Y-69130952D02*
X209633390Y-69178571D01*
X209633390Y-69178571D02*
X210204819Y-69749999D01*
X210204819Y-69749999D02*
X210204819Y-69130952D01*
X211084819Y-39666666D02*
X210608628Y-39999999D01*
X211084819Y-40238094D02*
X210084819Y-40238094D01*
X210084819Y-40238094D02*
X210084819Y-39857142D01*
X210084819Y-39857142D02*
X210132438Y-39761904D01*
X210132438Y-39761904D02*
X210180057Y-39714285D01*
X210180057Y-39714285D02*
X210275295Y-39666666D01*
X210275295Y-39666666D02*
X210418152Y-39666666D01*
X210418152Y-39666666D02*
X210513390Y-39714285D01*
X210513390Y-39714285D02*
X210561009Y-39761904D01*
X210561009Y-39761904D02*
X210608628Y-39857142D01*
X210608628Y-39857142D02*
X210608628Y-40238094D01*
X211084819Y-38714285D02*
X211084819Y-39285713D01*
X211084819Y-38999999D02*
X210084819Y-38999999D01*
X210084819Y-38999999D02*
X210227676Y-39095237D01*
X210227676Y-39095237D02*
X210322914Y-39190475D01*
X210322914Y-39190475D02*
X210370533Y-39285713D01*
D11*
%TO.C,SW1*%
X243090000Y-81490000D02*
X251910000Y-81490000D01*
X243090000Y-81800000D02*
X243090000Y-81490000D01*
X243090000Y-86010000D02*
X243090000Y-85700000D01*
X245000000Y-80790000D02*
X245500000Y-81290000D01*
X245500000Y-81290000D02*
X246000000Y-80790000D01*
X246000000Y-80790000D02*
X245000000Y-80790000D01*
X251910000Y-81490000D02*
X251910000Y-81800000D01*
X251910000Y-86010000D02*
X243090000Y-86010000D01*
X251910000Y-86010000D02*
X251910000Y-85700000D01*
%TO.C,U2*%
X260680000Y-84860000D02*
X260680000Y-80240000D01*
X270900000Y-84860000D02*
X260680000Y-84860000D01*
X260680000Y-81620000D02*
X270900000Y-81620000D01*
X260680000Y-80240000D02*
X270900000Y-80240000D01*
X263940000Y-80240000D02*
X263940000Y-81620000D01*
X267640000Y-80240000D02*
X267640000Y-81620000D01*
X270900000Y-80240000D02*
X270900000Y-84860000D01*
%TO.C,A1*%
X252360000Y-70510000D02*
X270400000Y-70510000D01*
X270400000Y-70510000D02*
X270400000Y-67840000D01*
X255030000Y-67840000D02*
X252360000Y-67840000D01*
X255030000Y-67840000D02*
X255030000Y-29740000D01*
X267730000Y-67840000D02*
X270400000Y-67840000D01*
X267730000Y-65300000D02*
X267730000Y-67840000D01*
X267730000Y-65300000D02*
X270400000Y-65300000D01*
X267730000Y-65300000D02*
X267730000Y-29740000D01*
X270400000Y-65300000D02*
X270400000Y-27070000D01*
X257440000Y-34950000D02*
X257440000Y-24530000D01*
X265320000Y-34950000D02*
X257440000Y-34950000D01*
X255030000Y-29740000D02*
X252360000Y-29740000D01*
X267730000Y-29740000D02*
X270400000Y-29740000D01*
X252360000Y-27070000D02*
X252360000Y-70510000D01*
X252360000Y-27070000D02*
X257440000Y-27070000D01*
X270400000Y-27070000D02*
X265320000Y-27070000D01*
X257440000Y-24530000D02*
X265320000Y-24530000D01*
X265320000Y-24530000D02*
X265320000Y-34950000D01*
%TO.C,10uF1*%
X242400000Y-95283000D02*
X242400000Y-94717000D01*
X242440000Y-95517000D02*
X242440000Y-94483000D01*
X242480000Y-95677000D02*
X242480000Y-94323000D01*
X242520000Y-95805000D02*
X242520000Y-94195000D01*
X242560000Y-95914000D02*
X242560000Y-94086000D01*
X242600000Y-96011000D02*
X242600000Y-93989000D01*
X242640000Y-96098000D02*
X242640000Y-93902000D01*
X242680000Y-96177000D02*
X242680000Y-93823000D01*
X242720000Y-93960000D02*
X242720000Y-93749000D01*
X242720000Y-96251000D02*
X242720000Y-96040000D01*
X242760000Y-93960000D02*
X242760000Y-93681000D01*
X242760000Y-96319000D02*
X242760000Y-96040000D01*
X242800000Y-93960000D02*
X242800000Y-93617000D01*
X242800000Y-96383000D02*
X242800000Y-96040000D01*
X242840000Y-93960000D02*
X242840000Y-93557000D01*
X242840000Y-96443000D02*
X242840000Y-96040000D01*
X242880000Y-93960000D02*
X242880000Y-93501000D01*
X242880000Y-96499000D02*
X242880000Y-96040000D01*
X242920000Y-93960000D02*
X242920000Y-93447000D01*
X242920000Y-96553000D02*
X242920000Y-96040000D01*
X242960000Y-93960000D02*
X242960000Y-93396000D01*
X242960000Y-96604000D02*
X242960000Y-96040000D01*
X243000000Y-93960000D02*
X243000000Y-93348000D01*
X243000000Y-96652000D02*
X243000000Y-96040000D01*
X243040000Y-93960000D02*
X243040000Y-93301000D01*
X243040000Y-96699000D02*
X243040000Y-96040000D01*
X243080000Y-93960000D02*
X243080000Y-93257000D01*
X243080000Y-96743000D02*
X243080000Y-96040000D01*
X243120000Y-93960000D02*
X243120000Y-93215000D01*
X243120000Y-96785000D02*
X243120000Y-96040000D01*
X243160000Y-93960000D02*
X243160000Y-93175000D01*
X243160000Y-96825000D02*
X243160000Y-96040000D01*
X243200000Y-93960000D02*
X243200000Y-93136000D01*
X243200000Y-96864000D02*
X243200000Y-96040000D01*
X243240000Y-93960000D02*
X243240000Y-93099000D01*
X243240000Y-96901000D02*
X243240000Y-96040000D01*
X243280000Y-93960000D02*
X243280000Y-93064000D01*
X243280000Y-96936000D02*
X243280000Y-96040000D01*
X243320000Y-93960000D02*
X243320000Y-93030000D01*
X243320000Y-96970000D02*
X243320000Y-96040000D01*
X243360000Y-93960000D02*
X243360000Y-92997000D01*
X243360000Y-97003000D02*
X243360000Y-96040000D01*
X243400000Y-93960000D02*
X243400000Y-92965000D01*
X243400000Y-97035000D02*
X243400000Y-96040000D01*
X243440000Y-93960000D02*
X243440000Y-92935000D01*
X243440000Y-97065000D02*
X243440000Y-96040000D01*
X243480000Y-93960000D02*
X243480000Y-92906000D01*
X243480000Y-97094000D02*
X243480000Y-96040000D01*
X243520000Y-93960000D02*
X243520000Y-92878000D01*
X243520000Y-97122000D02*
X243520000Y-96040000D01*
X243560000Y-93960000D02*
X243560000Y-92851000D01*
X243560000Y-97149000D02*
X243560000Y-96040000D01*
X243600000Y-93960000D02*
X243600000Y-92825000D01*
X243600000Y-97175000D02*
X243600000Y-96040000D01*
X243640000Y-93960000D02*
X243640000Y-92801000D01*
X243640000Y-97199000D02*
X243640000Y-96040000D01*
X243680000Y-93960000D02*
X243680000Y-92777000D01*
X243680000Y-97223000D02*
X243680000Y-96040000D01*
X243720000Y-93960000D02*
X243720000Y-92754000D01*
X243720000Y-97246000D02*
X243720000Y-96040000D01*
X243760000Y-93960000D02*
X243760000Y-92732000D01*
X243760000Y-97268000D02*
X243760000Y-96040000D01*
X243800000Y-93960000D02*
X243800000Y-92711000D01*
X243800000Y-97289000D02*
X243800000Y-96040000D01*
X243840000Y-93960000D02*
X243840000Y-92691000D01*
X243840000Y-97309000D02*
X243840000Y-96040000D01*
X243880000Y-93960000D02*
X243880000Y-92671000D01*
X243880000Y-97329000D02*
X243880000Y-96040000D01*
X243920000Y-93960000D02*
X243920000Y-92653000D01*
X243920000Y-97347000D02*
X243920000Y-96040000D01*
X243960000Y-93960000D02*
X243960000Y-92635000D01*
X243960000Y-97365000D02*
X243960000Y-96040000D01*
X244000000Y-93960000D02*
X244000000Y-92618000D01*
X244000000Y-97382000D02*
X244000000Y-96040000D01*
X244040000Y-93960000D02*
X244040000Y-92602000D01*
X244040000Y-97398000D02*
X244040000Y-96040000D01*
X244080000Y-93960000D02*
X244080000Y-92587000D01*
X244080000Y-97413000D02*
X244080000Y-96040000D01*
X244120000Y-93960000D02*
X244120000Y-92572000D01*
X244120000Y-97428000D02*
X244120000Y-96040000D01*
X244160000Y-93960000D02*
X244160000Y-92558000D01*
X244160000Y-97442000D02*
X244160000Y-96040000D01*
X244200000Y-93960000D02*
X244200000Y-92545000D01*
X244200000Y-97455000D02*
X244200000Y-96040000D01*
X244240000Y-93960000D02*
X244240000Y-92533000D01*
X244240000Y-97467000D02*
X244240000Y-96040000D01*
X244280000Y-93960000D02*
X244280000Y-92521000D01*
X244280000Y-97479000D02*
X244280000Y-96040000D01*
X244320000Y-93960000D02*
X244320000Y-92510000D01*
X244320000Y-97490000D02*
X244320000Y-96040000D01*
X244360000Y-93960000D02*
X244360000Y-92499000D01*
X244360000Y-97501000D02*
X244360000Y-96040000D01*
X244400000Y-93960000D02*
X244400000Y-92490000D01*
X244400000Y-97510000D02*
X244400000Y-96040000D01*
X244440000Y-93960000D02*
X244440000Y-92481000D01*
X244440000Y-97519000D02*
X244440000Y-96040000D01*
X244480000Y-93960000D02*
X244480000Y-92472000D01*
X244480000Y-97528000D02*
X244480000Y-96040000D01*
X244520000Y-93960000D02*
X244520000Y-92464000D01*
X244520000Y-97536000D02*
X244520000Y-96040000D01*
X244560000Y-93960000D02*
X244560000Y-92457000D01*
X244560000Y-97543000D02*
X244560000Y-96040000D01*
X244600000Y-93960000D02*
X244600000Y-92451000D01*
X244600000Y-97549000D02*
X244600000Y-96040000D01*
X244640000Y-93960000D02*
X244640000Y-92445000D01*
X244640000Y-97555000D02*
X244640000Y-96040000D01*
X244680000Y-93960000D02*
X244680000Y-92440000D01*
X244680000Y-97560000D02*
X244680000Y-96040000D01*
X244720000Y-93960000D02*
X244720000Y-92435000D01*
X244720000Y-97565000D02*
X244720000Y-96040000D01*
X244760000Y-93960000D02*
X244760000Y-92431000D01*
X244760000Y-97569000D02*
X244760000Y-96040000D01*
X244800000Y-97572000D02*
X244800000Y-92428000D01*
X244840000Y-97575000D02*
X244840000Y-92425000D01*
X244880000Y-97577000D02*
X244880000Y-92423000D01*
X244920000Y-97579000D02*
X244920000Y-92421000D01*
X244960000Y-97580000D02*
X244960000Y-92420000D01*
X245000000Y-97580000D02*
X245000000Y-92420000D01*
X247554775Y-96725000D02*
X247554775Y-96225000D01*
X247804775Y-96475000D02*
X247304775Y-96475000D01*
X247620000Y-95000000D02*
G75*
G02*
X242380000Y-95000000I-2620000J0D01*
G01*
X242380000Y-95000000D02*
G75*
G02*
X247620000Y-95000000I2620000J0D01*
G01*
%TO.C,BT1*%
X264995000Y-92620000D02*
X267645000Y-92620000D01*
X267645000Y-95380000D02*
X267645000Y-92620000D01*
X264995000Y-95380000D02*
X264995000Y-92620000D01*
X264995000Y-95380000D02*
X267645000Y-95380000D01*
X263725000Y-95380000D02*
X262345000Y-95380000D01*
X262345000Y-95380000D02*
X262345000Y-94000000D01*
%TO.C,U1*%
X238390000Y-41355000D02*
X228110000Y-41355000D01*
X228110000Y-41355000D02*
X228110000Y-46655000D01*
X238390000Y-43005000D02*
X238390000Y-41355000D01*
X238390000Y-46655000D02*
X238390000Y-45005000D01*
X228110000Y-46655000D02*
X238390000Y-46655000D01*
X238390000Y-45005000D02*
G75*
G02*
X238390000Y-43005000I0J1000000D01*
G01*
%TO.C,J1*%
X227370000Y-75880000D02*
X230130000Y-75880000D01*
X227370000Y-73230000D02*
X227370000Y-75880000D01*
X227370000Y-73230000D02*
X230130000Y-73230000D01*
X230130000Y-73230000D02*
X230130000Y-75880000D01*
X227370000Y-71960000D02*
X227370000Y-70580000D01*
X227370000Y-70580000D02*
X228750000Y-70580000D01*
%TO.C,10uF2*%
X210920000Y-71210000D02*
X216080000Y-71210000D01*
X210920000Y-71250000D02*
X216080000Y-71250000D01*
X210921000Y-71170000D02*
X216079000Y-71170000D01*
X210923000Y-71130000D02*
X216077000Y-71130000D01*
X210925000Y-71090000D02*
X216075000Y-71090000D01*
X210928000Y-71050000D02*
X216072000Y-71050000D01*
X210931000Y-71010000D02*
X212460000Y-71010000D01*
X210935000Y-70970000D02*
X212460000Y-70970000D01*
X210940000Y-70930000D02*
X212460000Y-70930000D01*
X210945000Y-70890000D02*
X212460000Y-70890000D01*
X210951000Y-70850000D02*
X212460000Y-70850000D01*
X210957000Y-70810000D02*
X212460000Y-70810000D01*
X210964000Y-70770000D02*
X212460000Y-70770000D01*
X210972000Y-70730000D02*
X212460000Y-70730000D01*
X210981000Y-70690000D02*
X212460000Y-70690000D01*
X210990000Y-70650000D02*
X212460000Y-70650000D01*
X210999000Y-70610000D02*
X212460000Y-70610000D01*
X211010000Y-70570000D02*
X212460000Y-70570000D01*
X211021000Y-70530000D02*
X212460000Y-70530000D01*
X211033000Y-70490000D02*
X212460000Y-70490000D01*
X211045000Y-70450000D02*
X212460000Y-70450000D01*
X211058000Y-70410000D02*
X212460000Y-70410000D01*
X211072000Y-70370000D02*
X212460000Y-70370000D01*
X211087000Y-70330000D02*
X212460000Y-70330000D01*
X211102000Y-70290000D02*
X212460000Y-70290000D01*
X211118000Y-70250000D02*
X212460000Y-70250000D01*
X211135000Y-70210000D02*
X212460000Y-70210000D01*
X211153000Y-70170000D02*
X212460000Y-70170000D01*
X211171000Y-70130000D02*
X212460000Y-70130000D01*
X211191000Y-70090000D02*
X212460000Y-70090000D01*
X211211000Y-70050000D02*
X212460000Y-70050000D01*
X211232000Y-70010000D02*
X212460000Y-70010000D01*
X211254000Y-69970000D02*
X212460000Y-69970000D01*
X211277000Y-69930000D02*
X212460000Y-69930000D01*
X211301000Y-69890000D02*
X212460000Y-69890000D01*
X211325000Y-69850000D02*
X212460000Y-69850000D01*
X211351000Y-69810000D02*
X212460000Y-69810000D01*
X211378000Y-69770000D02*
X212460000Y-69770000D01*
X211406000Y-69730000D02*
X212460000Y-69730000D01*
X211435000Y-69690000D02*
X212460000Y-69690000D01*
X211465000Y-69650000D02*
X212460000Y-69650000D01*
X211497000Y-69610000D02*
X212460000Y-69610000D01*
X211530000Y-69570000D02*
X212460000Y-69570000D01*
X211564000Y-69530000D02*
X212460000Y-69530000D01*
X211599000Y-69490000D02*
X212460000Y-69490000D01*
X211636000Y-69450000D02*
X212460000Y-69450000D01*
X211675000Y-69410000D02*
X212460000Y-69410000D01*
X211715000Y-69370000D02*
X212460000Y-69370000D01*
X211757000Y-69330000D02*
X212460000Y-69330000D01*
X211775000Y-73804775D02*
X212275000Y-73804775D01*
X211801000Y-69290000D02*
X212460000Y-69290000D01*
X211848000Y-69250000D02*
X212460000Y-69250000D01*
X211896000Y-69210000D02*
X212460000Y-69210000D01*
X211947000Y-69170000D02*
X212460000Y-69170000D01*
X212001000Y-69130000D02*
X212460000Y-69130000D01*
X212025000Y-74054775D02*
X212025000Y-73554775D01*
X212057000Y-69090000D02*
X212460000Y-69090000D01*
X212117000Y-69050000D02*
X212460000Y-69050000D01*
X212181000Y-69010000D02*
X212460000Y-69010000D01*
X212249000Y-68970000D02*
X212460000Y-68970000D01*
X212323000Y-68930000D02*
X214677000Y-68930000D01*
X212402000Y-68890000D02*
X214598000Y-68890000D01*
X212489000Y-68850000D02*
X214511000Y-68850000D01*
X212586000Y-68810000D02*
X214414000Y-68810000D01*
X212695000Y-68770000D02*
X214305000Y-68770000D01*
X212823000Y-68730000D02*
X214177000Y-68730000D01*
X212983000Y-68690000D02*
X214017000Y-68690000D01*
X213217000Y-68650000D02*
X213783000Y-68650000D01*
X214540000Y-68970000D02*
X214751000Y-68970000D01*
X214540000Y-69010000D02*
X214819000Y-69010000D01*
X214540000Y-69050000D02*
X214883000Y-69050000D01*
X214540000Y-69090000D02*
X214943000Y-69090000D01*
X214540000Y-69130000D02*
X214999000Y-69130000D01*
X214540000Y-69170000D02*
X215053000Y-69170000D01*
X214540000Y-69210000D02*
X215104000Y-69210000D01*
X214540000Y-69250000D02*
X215152000Y-69250000D01*
X214540000Y-69290000D02*
X215199000Y-69290000D01*
X214540000Y-69330000D02*
X215243000Y-69330000D01*
X214540000Y-69370000D02*
X215285000Y-69370000D01*
X214540000Y-69410000D02*
X215325000Y-69410000D01*
X214540000Y-69450000D02*
X215364000Y-69450000D01*
X214540000Y-69490000D02*
X215401000Y-69490000D01*
X214540000Y-69530000D02*
X215436000Y-69530000D01*
X214540000Y-69570000D02*
X215470000Y-69570000D01*
X214540000Y-69610000D02*
X215503000Y-69610000D01*
X214540000Y-69650000D02*
X215535000Y-69650000D01*
X214540000Y-69690000D02*
X215565000Y-69690000D01*
X214540000Y-69730000D02*
X215594000Y-69730000D01*
X214540000Y-69770000D02*
X215622000Y-69770000D01*
X214540000Y-69810000D02*
X215649000Y-69810000D01*
X214540000Y-69850000D02*
X215675000Y-69850000D01*
X214540000Y-69890000D02*
X215699000Y-69890000D01*
X214540000Y-69930000D02*
X215723000Y-69930000D01*
X214540000Y-69970000D02*
X215746000Y-69970000D01*
X214540000Y-70010000D02*
X215768000Y-70010000D01*
X214540000Y-70050000D02*
X215789000Y-70050000D01*
X214540000Y-70090000D02*
X215809000Y-70090000D01*
X214540000Y-70130000D02*
X215829000Y-70130000D01*
X214540000Y-70170000D02*
X215847000Y-70170000D01*
X214540000Y-70210000D02*
X215865000Y-70210000D01*
X214540000Y-70250000D02*
X215882000Y-70250000D01*
X214540000Y-70290000D02*
X215898000Y-70290000D01*
X214540000Y-70330000D02*
X215913000Y-70330000D01*
X214540000Y-70370000D02*
X215928000Y-70370000D01*
X214540000Y-70410000D02*
X215942000Y-70410000D01*
X214540000Y-70450000D02*
X215955000Y-70450000D01*
X214540000Y-70490000D02*
X215967000Y-70490000D01*
X214540000Y-70530000D02*
X215979000Y-70530000D01*
X214540000Y-70570000D02*
X215990000Y-70570000D01*
X214540000Y-70610000D02*
X216001000Y-70610000D01*
X214540000Y-70650000D02*
X216010000Y-70650000D01*
X214540000Y-70690000D02*
X216019000Y-70690000D01*
X214540000Y-70730000D02*
X216028000Y-70730000D01*
X214540000Y-70770000D02*
X216036000Y-70770000D01*
X214540000Y-70810000D02*
X216043000Y-70810000D01*
X214540000Y-70850000D02*
X216049000Y-70850000D01*
X214540000Y-70890000D02*
X216055000Y-70890000D01*
X214540000Y-70930000D02*
X216060000Y-70930000D01*
X214540000Y-70970000D02*
X216065000Y-70970000D01*
X214540000Y-71010000D02*
X216069000Y-71010000D01*
X216120000Y-71250000D02*
G75*
G02*
X210880000Y-71250000I-2620000J0D01*
G01*
X210880000Y-71250000D02*
G75*
G02*
X216120000Y-71250000I2620000J0D01*
G01*
%TO.C,R1*%
X213000000Y-43540000D02*
X213000000Y-42770000D01*
X213000000Y-35460000D02*
X213000000Y-36230000D01*
X211630000Y-42770000D02*
X214370000Y-42770000D01*
X214370000Y-36230000D01*
X211630000Y-36230000D01*
X211630000Y-42770000D01*
%TD*%
M02*
