M48
; DRILL file {KiCad 9.0.7} date 2026-04-05T00:07:45+0300
; FORMAT={-:-/ absolute / metric / decimal}
; #@! TF.CreationDate,2026-04-05T00:07:45+03:00
; #@! TF.GenerationSoftware,Kicad,Pcbnew,9.0.7
; #@! TF.FileFunction,MixedPlating,1,2
FMAT,2
METRIC
; #@! TA.AperFunction,Plated,PTH,ViaDrill
T1C0.300
; #@! TA.AperFunction,Plated,PTH,ComponentDrill
T2C0.800
; #@! TA.AperFunction,Plated,PTH,ComponentDrill
T3C1.000
; #@! TA.AperFunction,Plated,PTH,ComponentDrill
T4C1.100
; #@! TA.AperFunction,Plated,PTH,ComponentDrill
T5C1.500
%
G90
G05
T1
X225.25Y-52.25
X227.25Y-37.5
X229.0Y-35.0
X236.75Y-52.25
T2
X213.0Y-34.42
X213.0Y-44.58
X213.5Y-70.0
X213.5Y-72.5
X229.44Y-40.195
X229.44Y-47.815
X231.98Y-40.195
X231.98Y-47.815
X234.52Y-40.195
X234.52Y-47.815
X237.06Y-40.195
X237.06Y-47.815
X243.75Y-95.0
X245.5Y-83.75
X246.25Y-95.0
X247.5Y-83.75
X249.5Y-83.75
T3
X228.75Y-71.96
X228.75Y-74.5
X253.76Y-31.01
X253.76Y-33.55
X253.76Y-36.09
X253.76Y-38.63
X253.76Y-41.17
X253.76Y-43.71
X253.76Y-46.25
X253.76Y-48.79
X253.76Y-51.33
X253.76Y-53.87
X253.76Y-56.41
X253.76Y-58.95
X253.76Y-61.49
X253.76Y-64.03
X253.76Y-66.57
X263.725Y-94.0
X266.265Y-94.0
X269.0Y-31.01
X269.0Y-33.55
X269.0Y-36.09
X269.0Y-38.63
X269.0Y-41.17
X269.0Y-43.71
X269.0Y-46.25
X269.0Y-48.79
X269.0Y-51.33
X269.0Y-53.87
X269.0Y-56.41
X269.0Y-58.95
X269.0Y-61.49
X269.0Y-64.03
X269.0Y-66.57
T4
X263.25Y-83.5
X265.79Y-83.5
X268.33Y-83.5
T5
X243.4Y-83.75
X251.6Y-83.75
M30
