%TF.GenerationSoftware,KiCad,Pcbnew,9.0.7*%
%TF.CreationDate,2026-04-05T00:07:23+03:00*%
%TF.ProjectId,eda_monitor_v2_smart,6564615f-6d6f-46e6-9974-6f725f76325f,rev?*%
%TF.SameCoordinates,Original*%
%TF.FileFunction,Copper,L1,Top*%
%TF.FilePolarity,Positive*%
%FSLAX46Y46*%
G04 Gerber Fmt 4.6, Leading zero omitted, Abs format (unit mm)*
G04 Created by KiCad (PCBNEW 9.0.7) date 2026-04-05 00:07:23*
%MOMM*%
%LPD*%
G01*
G04 APERTURE LIST*
G04 Aperture macros list*
%AMRoundRect*
0 Rectangle with rounded corners*
0 $1 Rounding radius*
0 $2 $3 $4 $5 $6 $7 $8 $9 X,Y pos of 4 corners*
0 Add a 4 corners polygon primitive as box body*
4,1,4,$2,$3,$4,$5,$6,$7,$8,$9,$2,$3,0*
0 Add four circle primitives for the rounded corners*
1,1,$1+$1,$2,$3*
1,1,$1+$1,$4,$5*
1,1,$1+$1,$6,$7*
1,1,$1+$1,$8,$9*
0 Add four rect primitives between the rounded corners*
20,1,$1+$1,$2,$3,$4,$5,0*
20,1,$1+$1,$4,$5,$6,$7,0*
20,1,$1+$1,$6,$7,$8,$9,0*
20,1,$1+$1,$8,$9,$2,$3,0*%
G04 Aperture macros list end*
%TA.AperFunction,ComponentPad*%
%ADD10O,2.200000X3.500000*%
%TD*%
%TA.AperFunction,ComponentPad*%
%ADD11R,1.500000X2.500000*%
%TD*%
%TA.AperFunction,ComponentPad*%
%ADD12O,1.500000X2.500000*%
%TD*%
%TA.AperFunction,ComponentPad*%
%ADD13R,1.905000X2.000000*%
%TD*%
%TA.AperFunction,ComponentPad*%
%ADD14O,1.905000X2.000000*%
%TD*%
%TA.AperFunction,ComponentPad*%
%ADD15R,1.600000X1.600000*%
%TD*%
%TA.AperFunction,ComponentPad*%
%ADD16O,1.600000X1.600000*%
%TD*%
%TA.AperFunction,ComponentPad*%
%ADD17RoundRect,0.250000X0.550000X0.550000X-0.550000X0.550000X-0.550000X-0.550000X0.550000X-0.550000X0*%
%TD*%
%TA.AperFunction,ComponentPad*%
%ADD18C,1.600000*%
%TD*%
%TA.AperFunction,ComponentPad*%
%ADD19R,1.700000X1.700000*%
%TD*%
%TA.AperFunction,ComponentPad*%
%ADD20C,1.700000*%
%TD*%
%TA.AperFunction,ComponentPad*%
%ADD21RoundRect,0.250000X-0.550000X0.550000X-0.550000X-0.550000X0.550000X-0.550000X0.550000X0.550000X0*%
%TD*%
%TA.AperFunction,ComponentPad*%
%ADD22RoundRect,0.250000X0.550000X-0.550000X0.550000X0.550000X-0.550000X0.550000X-0.550000X-0.550000X0*%
%TD*%
%TA.AperFunction,ViaPad*%
%ADD23C,0.600000*%
%TD*%
%TA.AperFunction,Conductor*%
%ADD24C,0.200000*%
%TD*%
G04 APERTURE END LIST*
D10*
%TO.P,SW1,*%
%TO.N,*%
X243400000Y-83750000D03*
X251600000Y-83750000D03*
D11*
%TO.P,SW1,1,1*%
%TO.N,Net-(BT1-+)*%
X245500000Y-83750000D03*
D12*
%TO.P,SW1,2,2*%
%TO.N,Net-(J1-Pin_1)*%
X247500000Y-83750000D03*
%TO.P,SW1,3*%
%TO.N,N/C*%
X249500000Y-83750000D03*
%TD*%
D13*
%TO.P,U2,1,IN*%
%TO.N,Net-(BT1-+)*%
X263250000Y-83500000D03*
D14*
%TO.P,U2,2,GND*%
%TO.N,Net-(BT1--)*%
X265790000Y-83500000D03*
%TO.P,U2,3,OUT*%
%TO.N,Net-(A1-+5V)*%
X268330000Y-83500000D03*
%TD*%
D15*
%TO.P,A1,1,D1/TX*%
%TO.N,unconnected-(A1-D1{slash}TX-Pad1)*%
X269000000Y-66570000D03*
D16*
%TO.P,A1,2,D0/RX*%
%TO.N,unconnected-(A1-D0{slash}RX-Pad2)*%
X269000000Y-64030000D03*
%TO.P,A1,3,~{RESET}*%
%TO.N,unconnected-(A1-~{RESET}-Pad3)*%
X269000000Y-61490000D03*
%TO.P,A1,4,GND*%
%TO.N,unconnected-(A1-GND-Pad4)*%
X269000000Y-58950000D03*
%TO.P,A1,5,D2*%
%TO.N,unconnected-(A1-D2-Pad5)*%
X269000000Y-56410000D03*
%TO.P,A1,6,D3*%
%TO.N,unconnected-(A1-D3-Pad6)*%
X269000000Y-53870000D03*
%TO.P,A1,7,D4*%
%TO.N,unconnected-(A1-D4-Pad7)*%
X269000000Y-51330000D03*
%TO.P,A1,8,D5*%
%TO.N,unconnected-(A1-D5-Pad8)*%
X269000000Y-48790000D03*
%TO.P,A1,9,D6*%
%TO.N,unconnected-(A1-D6-Pad9)*%
X269000000Y-46250000D03*
%TO.P,A1,10,D7*%
%TO.N,unconnected-(A1-D7-Pad10)*%
X269000000Y-43710000D03*
%TO.P,A1,11,D8*%
%TO.N,unconnected-(A1-D8-Pad11)*%
X269000000Y-41170000D03*
%TO.P,A1,12,D9*%
%TO.N,unconnected-(A1-D9-Pad12)*%
X269000000Y-38630000D03*
%TO.P,A1,13,D10*%
%TO.N,unconnected-(A1-D10-Pad13)*%
X269000000Y-36090000D03*
%TO.P,A1,14,D11*%
%TO.N,unconnected-(A1-D11-Pad14)*%
X269000000Y-33550000D03*
%TO.P,A1,15,D12*%
%TO.N,unconnected-(A1-D12-Pad15)*%
X269000000Y-31010000D03*
%TO.P,A1,16,D13*%
%TO.N,unconnected-(A1-D13-Pad16)*%
X253760000Y-31010000D03*
%TO.P,A1,17,3V3*%
%TO.N,unconnected-(A1-3V3-Pad17)*%
X253760000Y-33550000D03*
%TO.P,A1,18,AREF*%
%TO.N,unconnected-(A1-AREF-Pad18)*%
X253760000Y-36090000D03*
%TO.P,A1,19,A0*%
%TO.N,Net-(A1-A0)*%
X253760000Y-38630000D03*
%TO.P,A1,20,A1*%
%TO.N,unconnected-(A1-A1-Pad20)*%
X253760000Y-41170000D03*
%TO.P,A1,21,A2*%
%TO.N,unconnected-(A1-A2-Pad21)*%
X253760000Y-43710000D03*
%TO.P,A1,22,A3*%
%TO.N,unconnected-(A1-A3-Pad22)*%
X253760000Y-46250000D03*
%TO.P,A1,23,A4*%
%TO.N,unconnected-(A1-A4-Pad23)*%
X253760000Y-48790000D03*
%TO.P,A1,24,A5*%
%TO.N,unconnected-(A1-A5-Pad24)*%
X253760000Y-51330000D03*
%TO.P,A1,25,A6*%
%TO.N,unconnected-(A1-A6-Pad25)*%
X253760000Y-53870000D03*
%TO.P,A1,26,A7*%
%TO.N,unconnected-(A1-A7-Pad26)*%
X253760000Y-56410000D03*
%TO.P,A1,27,+5V*%
%TO.N,Net-(A1-+5V)*%
X253760000Y-58950000D03*
%TO.P,A1,28,~{RESET}*%
%TO.N,unconnected-(A1-~{RESET}-Pad28)*%
X253760000Y-61490000D03*
%TO.P,A1,29,GND*%
%TO.N,Net-(BT1--)*%
X253760000Y-64030000D03*
%TO.P,A1,30,VIN*%
%TO.N,unconnected-(A1-VIN-Pad30)*%
X253760000Y-66570000D03*
%TD*%
D17*
%TO.P,10uF1,1*%
%TO.N,Net-(BT1-+)*%
X246250000Y-95000000D03*
D18*
%TO.P,10uF1,2*%
%TO.N,Net-(BT1--)*%
X243750000Y-95000000D03*
%TD*%
D19*
%TO.P,BT1,1,+*%
%TO.N,Net-(BT1-+)*%
X263725000Y-94000000D03*
D20*
%TO.P,BT1,2,-*%
%TO.N,Net-(BT1--)*%
X266265000Y-94000000D03*
%TD*%
D21*
%TO.P,U1,1*%
%TO.N,Net-(A1-A0)*%
X237060000Y-40195000D03*
D18*
%TO.P,U1,2,-*%
%TO.N,Net-(BT1--)*%
X234520000Y-40195000D03*
%TO.P,U1,3,+*%
%TO.N,Net-(J1-Pin_1)*%
X231980000Y-40195000D03*
%TO.P,U1,4,V-*%
%TO.N,Net-(BT1--)*%
X229440000Y-40195000D03*
%TO.P,U1,5,+*%
X229440000Y-47815000D03*
%TO.P,U1,6,-*%
%TO.N,Net-(U1B--)*%
X231980000Y-47815000D03*
%TO.P,U1,7*%
X234520000Y-47815000D03*
%TO.P,U1,8,V+*%
%TO.N,Net-(A1-+5V)*%
X237060000Y-47815000D03*
%TD*%
D19*
%TO.P,J1,1,Pin_1*%
%TO.N,Net-(J1-Pin_1)*%
X228750000Y-71960000D03*
D20*
%TO.P,J1,2,Pin_2*%
%TO.N,Net-(BT1--)*%
X228750000Y-74500000D03*
%TD*%
D22*
%TO.P,10uF2,1*%
%TO.N,Net-(A1-+5V)*%
X213500000Y-72500000D03*
D18*
%TO.P,10uF2,2*%
%TO.N,Net-(BT1--)*%
X213500000Y-70000000D03*
%TD*%
%TO.P,R1,1*%
%TO.N,Net-(A1-+5V)*%
X213000000Y-44580000D03*
%TO.P,R1,2*%
%TO.N,Net-(J1-Pin_1)*%
X213000000Y-34420000D03*
%TD*%
D23*
%TO.N,Net-(BT1--)*%
X229000000Y-35000000D03*
X227250000Y-37500000D03*
%TO.N,Net-(A1-+5V)*%
X236750000Y-52250000D03*
X225250000Y-52250000D03*
%TD*%
D24*
%TO.N,Net-(BT1--)*%
X231250000Y-35000000D02*
X234000000Y-37750000D01*
X229000000Y-35000000D02*
X231250000Y-35000000D01*
X234000000Y-37750000D02*
X234000000Y-39675000D01*
X234000000Y-39675000D02*
X234520000Y-40195000D01*
X229440000Y-39690000D02*
X227250000Y-37500000D01*
X229440000Y-40195000D02*
X229440000Y-39690000D01*
%TO.N,Net-(A1-+5V)*%
X236750000Y-52250000D02*
X236750000Y-48125000D01*
X236750000Y-48125000D02*
X237060000Y-47815000D01*
X220670000Y-52250000D02*
X225250000Y-52250000D01*
X213000000Y-44580000D02*
X220670000Y-52250000D01*
%TO.N,Net-(U1B--)*%
X231980000Y-47815000D02*
X234520000Y-47815000D01*
%TO.N,Net-(A1-+5V)*%
X211500000Y-72500000D02*
X211500000Y-46080000D01*
X211500000Y-46080000D02*
X213000000Y-44580000D01*
X213500000Y-72500000D02*
X211500000Y-72500000D01*
%TO.N,Net-(J1-Pin_1)*%
X247500000Y-76000000D02*
X244250000Y-72750000D01*
X229540000Y-72750000D02*
X228750000Y-71960000D01*
X247500000Y-83750000D02*
X247500000Y-76000000D01*
X244250000Y-72750000D02*
X229540000Y-72750000D01*
%TO.N,Net-(BT1--)*%
X231000000Y-95000000D02*
X228000000Y-92000000D01*
X243750000Y-95000000D02*
X231000000Y-95000000D01*
X228000000Y-92000000D02*
X228000000Y-75250000D01*
X228000000Y-75250000D02*
X228750000Y-74500000D01*
%TO.N,Net-(BT1-+)*%
X246250000Y-88500000D02*
X246000000Y-88250000D01*
X246000000Y-84250000D02*
X245500000Y-83750000D01*
X246250000Y-95000000D02*
X246250000Y-88500000D01*
X246000000Y-88250000D02*
X246000000Y-84250000D01*
%TO.N,Net-(BT1--)*%
X266265000Y-94000000D02*
X263265000Y-97000000D01*
X263265000Y-97000000D02*
X244500000Y-97000000D01*
X244500000Y-97000000D02*
X244000000Y-96500000D01*
X244000000Y-96500000D02*
X244000000Y-95250000D01*
X244000000Y-95250000D02*
X243750000Y-95000000D01*
%TO.N,Net-(BT1-+)*%
X263725000Y-94000000D02*
X247250000Y-94000000D01*
X247250000Y-94000000D02*
X246250000Y-95000000D01*
%TO.N,Net-(BT1--)*%
X266265000Y-94000000D02*
X266265000Y-83975000D01*
X266265000Y-83975000D02*
X265790000Y-83500000D01*
%TO.N,Net-(BT1-+)*%
X263250000Y-83500000D02*
X263250000Y-93525000D01*
X263250000Y-93525000D02*
X263725000Y-94000000D01*
%TO.N,Net-(BT1--)*%
X265790000Y-83500000D02*
X265790000Y-78790000D01*
X265790000Y-78790000D02*
X262750000Y-75750000D01*
X262750000Y-75750000D02*
X262750000Y-68500000D01*
X258280000Y-64030000D02*
X253760000Y-64030000D01*
X262750000Y-68500000D02*
X258280000Y-64030000D01*
%TO.N,Net-(A1-+5V)*%
X253760000Y-58950000D02*
X258450000Y-58950000D01*
X268500000Y-83330000D02*
X268330000Y-83500000D01*
X258450000Y-58950000D02*
X265500000Y-66000000D01*
X265500000Y-66000000D02*
X265500000Y-73750000D01*
X265500000Y-73750000D02*
X268500000Y-76750000D01*
X268500000Y-76750000D02*
X268500000Y-83330000D01*
X237060000Y-47815000D02*
X248195000Y-58950000D01*
X248195000Y-58950000D02*
X253760000Y-58950000D01*
%TO.N,Net-(A1-A0)*%
X242250000Y-40250000D02*
X248750000Y-40250000D01*
X250000000Y-39000000D02*
X253390000Y-39000000D01*
X237060000Y-40195000D02*
X242195000Y-40195000D01*
X242195000Y-40195000D02*
X242250000Y-40250000D01*
X248750000Y-40250000D02*
X250000000Y-39000000D01*
X253390000Y-39000000D02*
X253760000Y-38630000D01*
%TO.N,Net-(J1-Pin_1)*%
X213000000Y-34420000D02*
X226205000Y-34420000D01*
X226205000Y-34420000D02*
X231980000Y-40195000D01*
%TO.N,Net-(BT1--)*%
X229440000Y-47815000D02*
X229440000Y-40195000D01*
%TO.N,Net-(J1-Pin_1)*%
X228750000Y-71960000D02*
X228750000Y-59000000D01*
X228750000Y-59000000D02*
X230000000Y-57750000D01*
X230000000Y-57750000D02*
X230000000Y-50500000D01*
X230000000Y-50500000D02*
X230750000Y-49750000D01*
X230750000Y-49750000D02*
X230750000Y-41425000D01*
X230750000Y-41425000D02*
X231980000Y-40195000D01*
%TO.N,Net-(BT1--)*%
X221750000Y-63250000D02*
X228000000Y-57000000D01*
X228000000Y-57000000D02*
X228000000Y-49255000D01*
X221750000Y-70000000D02*
X221750000Y-63250000D01*
X228000000Y-49255000D02*
X229440000Y-47815000D01*
X226250000Y-74500000D02*
X221750000Y-70000000D01*
X228750000Y-74500000D02*
X226250000Y-74500000D01*
X221750000Y-70000000D02*
X213500000Y-70000000D01*
%TD*%
M02*
